# xmcd CD database file
#
# Track frame offsets:
#	180
#	27189
#	46848
#	91285
#	113247
#	131326
#	146847
#	151800
#	164614
#	181946
#	198444
#	215708
#	230639
#	242352
#	250983
#	267805
#	280642
#
# Disc length: 3902 seconds
#
# Revision: 0
# Processed by: cddbd v1.5.1PL0 Copyright (c) Steve Scherf et al.
# Submitted via: CDex 1.51
#
DISCID=ea0f3c11
DTITLE=Ken Davis - Soundscapes
DYEAR=1996
DGENRE=New Age
TTITLE0=Soundscapes
TTITLE1=Morning Sunrise
TTITLE2=Antartica
TTITLE3=Loving You
TTITLE4=Pure Bliss
TTITLE5=Dewdrops
TTITLE6=China
TTITLE7=Dream Passages
TTITLE8=Voices In The Wind
TTITLE9=Is This Love
TTITLE10=Tranquility
TTITLE11=High On A Mountain
TTITLE12=Pyramids By The Ocean
TTITLE13=Minuet
TTITLE14=The Change
TTITLE15=Deep Space
TTITLE16=Crystal Vision With Mother Nature
EXTD=YEAR: 1996
EXTT0=
EXTT1=
EXTT2=
EXTT3=
EXTT4=
EXTT5=
EXTT6=
EXTT7=
EXTT8=
EXTT9=
EXTT10=
EXTT11=
EXTT12=
EXTT13=
EXTT14=
EXTT15=
EXTT16=
PLAYORDER=
